HIERARCHY
ROOT Hips
{
  OFFSET -187.679 86.5976 -156.378
  CHANNELS 6 Xposition Yposition Zposition Zrotation Xrotation Yrotation
  JOINT LeftUpLeg
  {
    OFFSET 8.64259 1.95398 -2.38835
    CHANNELS 3 Zrotation Xrotation Yrotation
    JOINT LeftLeg
    {
      OFFSET 43.7702 0 0
      CHANNELS 3 Zrotation Xrotation Yrotation
      JOINT LeftFoot
      {
        OFFSET 40.6238 0 0
        CHANNELS 3 Zrotation Xrotation Yrotation
        JOINT LeftToeBase
        {
          OFFSET 12.7242 0 0
          CHANNELS 3 Zrotation Xrotation Yrotation
          End Site
          {
            OFFSET 0 0 0
          }
        }
      }
    }
  }
  JOINT RightUpLeg
  {
    OFFSET -8.2249 1.95398 -2.59336
    CHANNELS 3 Zrotation Xrotation Yrotation
    JOINT RightLeg
    {
      OFFSET 43.5653 0 0
      CHANNELS 3 Zrotation Xrotation Yrotation
      JOINT RightFoot
      {
        OFFSET 40.6238 0 0
        CHANNELS 3 Zrotation Xrotation Yrotation
        JOINT RightToeBase
        {
          OFFSET 12.7242 0 0
          CHANNELS 3 Zrotation Xrotation Yrotation
          End Site
          {
            OFFSET 0 0 0
          }
        }
      }
    }
  }
  JOINT Spine
  {
    OFFSET 0.165834 0.87714 6.61349
    CHANNELS 3 Zrotation Xrotation Yrotation
    JOINT Spine1
    {
      OFFSET 7.38963 1.71661e-005 0
      CHANNELS 3 Zrotation Xrotation Yrotation
      JOINT Spine2
      {
        OFFSET 11.9445 1.14441e-005 0
        CHANNELS 3 Zrotation Xrotation Yrotation
        JOINT Spine3
        {
          OFFSET 14.7254 4.19617e-005 0
          CHANNELS 3 Zrotation Xrotation Yrotation
          JOINT Spine4
          {
            OFFSET 10.9679 0 0
            CHANNELS 3 Zrotation Xrotation Yrotation
            JOINT RightShoulder
            {
              OFFSET 2.46616 -1.6653 3.69651
              CHANNELS 3 Zrotation Xrotation Yrotation
              JOINT RightArm
              {
                OFFSET 13.0012 0 0
                CHANNELS 3 Zrotation Xrotation Yrotation
                JOINT RightForeArm
                {
                  OFFSET 28.7848 1.52588e-005 0
                  CHANNELS 3 Zrotation Xrotation Yrotation
                  JOINT RightHand
                  {
                    OFFSET 26.5688 1.52588e-005 0
                    CHANNELS 3 Zrotation Xrotation Yrotation
                    End Site
                    {
                      OFFSET 0 0 0
                    }
                  }
                }
              }
            }
            JOINT LeftShoulder
            {
              OFFSET 2.38034 -1.29275 -3.7523
              CHANNELS 3 Zrotation Xrotation Yrotation
              JOINT LeftArm
              {
                OFFSET 16.3182 6.10352e-005 0
                CHANNELS 3 Zrotation Xrotation Yrotation
                JOINT LeftForeArm
                {
                  OFFSET 27.0901 0 0
                  CHANNELS 3 Zrotation Xrotation Yrotation
                  JOINT LeftHand
                  {
                    OFFSET 24.5451 1.52588e-005 0
                    CHANNELS 3 Zrotation Xrotation Yrotation
                    End Site
                    {
                      OFFSET 0 0 0
                    }
                  }
                }
              }
            }
            JOINT Neck
            {
              OFFSET 5.0226 -0.0266342 0
              CHANNELS 3 Zrotation Xrotation Yrotation
              JOINT Head
              {
                OFFSET 6.69363 2.86102e-005 0
                CHANNELS 3 Zrotation Xrotation Yrotation
                End Site
                {
                  OFFSET 0 0 0
                }
              }
            }
          }
        }
      }
    }
  }
}
MOTION
Frames:	11
Frame Time:	0.0416667
-314.741 87.7932 313.1 93.8366 26.5579 84.3567 -171.482 44.0847 92.2235 -70.3592 10.3428 1.38639 76.8565 8.48908 4.40158 24.5373 1.09482 -7.65636 170.308 -16.1519 80.1272 -37.0751 -15.1188 -6.97768 71.0771 -6.27931 -2.62592 41.7934 0.129796 10.8762 3.9064 7.97871 -89.7093 10.944 7.9118 -0.17147 -0.70276 7.89655 -0.521744 -23.4219 7.59534 2.22839 -3.40922 7.59534 2.22839 96.166 -32.375 -93.7699 19.8683 14.4783 -17.4828 -39.1015 18.7346 -119.982 -10.7263 -1.32692 9.71902 -87.9066 -40.3604 80.1465 -40.6721 41.1176 60.1477 91.8649 -35.9228 -73.7674 11.971 -0.169977 -4.84892 27.579 -7.31761 -0.683294 -8.61732 -6.93639 3.65091 
-304.711 88.7306 303.053 88.7614 42.6508 88.6657 179.159 48.2899 90.0546 -47.7168 21.6137 4.04753 68.3245 5.238 3.7353 27.0457 0.902641 -4.77817 175.099 -18.8299 90.2072 -35.4795 -5.95645 -3.95454 58.4442 0.43466 -3.09946 26.4106 -3.28202 9.5905 2.67628 7.65094 -89.1888 11.5571 5.70352 1.02846 -0.101424 5.7432 0.775611 -22.7195 5.1302 2.69924 -2.70688 5.13018 2.69924 94.9671 -30.0635 -96.6348 20.8223 18.1944 -19.4974 -38.6395 20.5135 -124.062 -8.14488 -0.931381 8.74744 -85.139 -26.628 82.0947 -44.8494 38.0719 57.3221 90.2351 -38.4298 -74.6949 10.7666 0.696282 2.20978 25.2899 -12.4818 -10.1947 -5.7914 -8.5431 6.30408 
-294.174 89.591 292.386 89.9024 42.0025 88.2911 -178.694 42.1039 89.9782 -36.4283 22.149 2.27762 71.0954 5.95759 1.30354 21.6498 -3.4291 1.58449 176.036 -20.1222 90.9266 -42.76 -5.39272 -4.7154 61.3051 -1.18821 -2.205 19.7705 -3.75246 6.18385 2.7724 7.40497 -89.2928 12.0629 5.84615 0.77601 0.405143 5.87461 0.517058 -22.2208 5.34191 2.50189 -2.20819 5.34192 2.50188 95.0858 -30.743 -96.2383 20.9697 3.83401 -15.7365 -39.3243 24.7719 -122.885 -6.61322 -0.624852 6.62034 -86.0823 -31.0245 81.2295 -44.3358 35.4865 58.2227 92.5298 -39.8729 -74.3954 15.7562 1.20101 3.84319 20.6678 -11.3159 -8.81491 -4.25921 -8.18382 5.11116 
-284.579 89.1115 282.269 93.4365 42.1404 88.1287 -177.202 36.9024 90.9418 -39.9333 20.6011 2.71458 61.6534 1.0886 1.16677 26.0678 -1.37635 0.881328 173.826 -14.96 91.6553 -59.0965 5.21669 -1.78597 65.4249 -3.02961 -0.179347 23.5167 -3.56916 7.98638 2.2578 7.41377 -89.6934 12.0537 4.63329 0.10264 0.390962 4.63328 -0.10183 -22.2055 4.38783 1.49309 -2.19284 4.38784 1.49309 93.3771 -35.4878 -98.4073 23.801 -11.6846 -8.36667 -44.277 25.3259 -113.683 -5.69583 -0.470253 5.06966 -86.7647 -37.7618 81.5243 -39.712 31.5755 47.4417 93.589 -34.2448 -75.4408 12.3544 1.08834 4.89655 18.5814 -8.74305 -7.40506 -4.69798 -6.33293 4.92353 
-275.787 88.4833 272.835 96.2923 41.8132 84.147 -173.554 34.0669 88.1866 -54.621 22.5704 1.23213 71.1858 6.59238 4.70638 13.971 -6.21747 0.531045 170.379 -1.99767 87.7733 -79.2239 11.8013 -1.84081 70.9686 -5.15098 -1.66022 16.0292 -2.70993 1.65867 1.42223 7.59736 -89.4564 11.6715 3.08389 0.761459 0.00408113 3.11442 0.624864 -22.5532 2.7124 1.65367 -2.5406 2.71239 1.65365 92.4395 -40.7876 -98.8192 30.0944 -22.1539 0.280972 -54.4043 18.9304 -96.7406 -4.05023 -0.294626 4.02597 -88.3786 -44.1376 80.1989 -30.1365 24.0371 30.9049 93.3041 -27.891 -79.4532 10.8519 1.28507 7.60527 18.2256 -5.63573 -8.78252 -3.79407 -2.894 5.04185 
-267.733 87.5345 264.14 98.2631 37.0676 76.8511 -169.831 25.0668 83.228 -59.5816 17.0901 -1.80811 76.9006 9.78676 5.39051 23.2247 -0.805556 -3.54485 174.999 14.797 81.0998 -93.3376 15.1061 -4.89945 74.9813 -6.54838 -1.85609 19.6649 -2.94973 4.06366 0.896604 7.87037 -88.5784 11.0935 2.44407 2.58812 -0.577529 2.55557 2.47807 -23.1008 1.55372 3.20255 -3.0882 1.55373 3.20256 89.6213 -46.1703 -102.162 32.9556 -17.9328 10.2681 -61.2054 4.19761 -83.916 -5.09332 -0.400946 3.86664 -90.1121 -47.5453 78.2394 -22.6939 23.6849 13.4267 99.3781 -25.7855 -76.6064 20.5753 2.72673 9.95554 18.7181 -2.53621 -10.8799 -4.236 0.776792 3.95055 
-259.389 86.2812 256.142 98.2184 35.1223 77.7196 -169.464 17.8894 84.7892 -63.8331 11.9377 -1.38863 88.6042 13.824 0.686937 20.8631 -2.55223 -1.33497 179.437 32.3521 89.1055 -96.0705 16.5723 -4.81146 76.4606 -6.90956 -3.49694 22.4395 -4.11899 8.85164 0.244888 7.80023 -88.7044 11.2625 1.0904 2.46719 -0.410611 1.1979 2.41685 -22.9248 0.298928 2.68066 -2.91219 0.298944 2.68066 90.7961 -44.7454 -100.622 34.9702 -10.4316 20.3016 -69.2336 -9.00837 -81.3228 0.100135 0.0272457 1.5167 -90.6981 -48.3312 77.53 -11.0971 26.6585 -4.37983 100.141 -24.7227 -75.6981 17.8948 -0.43564 -3.66924 17.3994 2.10334 -6.82313 -3.70833 4.01623 0.0259024 
-249.095 87.136 245.81 100.248 37.714 78.695 -170.817 1.56318 85.5795 -57.2275 9.06144 1.05665 91.9172 14.7991 -1.23878 28.6723 0.792194 -2.73272 178.735 39.1407 91.6459 -83.801 16.7679 -3.58089 78.4642 -6.48286 -0.896891 21.0832 -3.07784 5.21456 -0.842384 7.77067 -89.0628 11.3385 -1.23939 1.99101 -0.333331 -1.15057 2.0436 -22.8658 -1.7804 1.52658 -2.85318 -1.78041 1.52658 93.465 -41.932 -96.8108 34.5403 -7.87087 30.6919 -64.0221 -8.29624 -79.0665 -3.28802 -0.152998 1.12942 -90.1734 -46.2962 77.8589 1.9537 11.4555 -19.0904 84.9087 -24.2893 -86.5168 12.3702 2.22827 13.2477 15.835 6.84802 -3.49987 -4.15588 7.63153 -2.23334 
-238.733 87.7756 236.033 100.954 38.5311 80.2443 -170.785 -11.2342 88.0149 -46.8751 11.9316 3.4557 86.6374 13.6865 2.01659 36.9251 3.2457 -0.798857 179.899 41.3394 92.5454 -62.1475 16.9244 -1.71537 77.993 -6.25747 3.32685 10.8492 -5.50656 5.53758 -1.78191 7.6851 -89.3746 11.5285 -3.25246 1.57949 -0.139494 -3.17981 1.72118 -22.7059 -3.57664 0.527912 -2.6933 -3.57662 0.527898 95.4066 -37.6797 -94.2246 33.2451 -8.28417 37.9626 -58.6631 -3.89334 -79.6323 -3.46875 -0.124934 -0.952778 -88.5796 -39.3938 78.7877 3.19504 3.8582 -24.0411 82.1903 -24.5101 -89.3042 13.0635 2.62536 15.6275 15.1071 11.3758 -2.07467 -4.7878 11.6412 -2.32193 
-227.714 88.6625 225.605 102.511 39.5001 80.7961 -170.23 -25.471 90.3632 -34.4629 14.9401 6.12857 71.3878 6.52035 2.98501 44.5158 6.15774 -2.44564 179.558 35.1332 93.3494 -36.0924 6.21081 0.0630189 64.0444 -2.65654 1.69589 22.3334 -1.84814 2.51169 -2.67286 7.75724 -89.725 11.3951 -5.19011 1.07244 -0.266068 -5.13787 1.30038 -22.8847 -5.2718 -0.541419 -2.87206 -5.27181 -0.541416 97.1969 -32.4892 -91.7348 31.2081 -7.39641 41.8929 -61.4169 1.16739 -83.7139 -1.97889 -0.0583285 -2.35637 -87.0602 -32.8063 79.8485 -0.923564 -6.02398 -24.083 77.4376 -24.2221 -94.1933 12.714 2.91345 18.1465 16.9227 15.3855 0.920635 -6.7882 14.768 -3.07839 
-217.185 88.5736 215.901 101.007 42.8034 82.7741 -169.703 -28.7787 93.1057 -35.7087 18.8935 8.59673 62.7435 2.43249 2.29584 33.2153 1.38858 1.2076 -179.231 32.5199 92.9818 -23.9587 -0.340178 -0.619317 63.4718 -2.78968 -1.10821 23.0005 -2.05673 3.37451 -3.20788 7.48269 -90.1474 11.9373 -6.44772 0.404764 0.282226 -6.42363 0.689329 -22.3772 -6.27003 -1.55965 -2.36453 -6.27004 -1.55965 97.8857 -30.2699 -90.7018 25.1904 -1.18487 48.274 -53.8277 6.62451 -91.7109 -2.26347 -0.050646 -2.63643 -86.3059 -29.2667 80.402 -6.72445 -10.4585 -25.4952 75.4625 -23.6865 -97.0416 14.9954 3.53669 19.2385 18.1093 16.6037 2.81346 -8.44061 15.3912 -1.97285 
